<svg id="visual" viewBox="0 0 300 100" width="300" height="100" xmlns="http://www.w3.org/2000/svg" xmlns:xlink="http://www.w3.org/1999/xlink" version="1.1"><path class-"path-1" d="M0 18L5 22.7C10 27.3 20 36.7 30 39.8C40 43 50 40 60 35.3C70 30.7 80 24.3 90 25.3C100 26.3 110 34.7 120 35.8C130 37 140 31 150 33C160 35 170 45 180 45.7C190 46.3 200 37.7 210 37.2C220 36.7 230 44.3 240 45.3C250 46.3 260 40.7 270 36.8C280 33 290 31 295 30L300 29L300 101L295 101C290 101 280 101 270 101C260 101 250 101 240 101C230 101 220 101 210 101C200 101 190 101 180 101C170 101 160 101 150 101C140 101 130 101 120 101C110 101 100 101 90 101C80 101 70 101 60 101C50 101 40 101 30 101C20 101 10 101 5 101L0 101Z" fill="#fa8072"></path>

<path class="path-2" d="M0 59L5 59.8C10 60.7 20 62.3 30 59.2C40 56 50 48 60 47.8C70 47.7 80 55.3 90 56.5C100 57.7 110 52.3 120 50.2C130 48 140 49 150 48.8C160 48.7 170 47.3 180 49.7C190 52 200 58 210 57.3C220 56.7 230 49.3 240 50.3C250 51.3 260 60.7 270 60.3C280 60 290 50 295 45L300 40L300 101L295 101C290 101 280 101 270 101C260 101 250 101 240 101C230 101 220 101 210 101C200 101 190 101 180 101C170 101 160 101 150 101C140 101 130 101 120 101C110 101 100 101 90 101C80 101 70 101 60 101C50 101 40 101 30 101C20 101 10 101 5 101L0 101Z" fill="#fca5a0"></path>

<path class="path-3" d="M0 81L5 77.8C10 74.7 20 68.3 30 66.8C40 65.3 50 68.7 60 69.8C70 71 80 70 90 70.5C100 71 110 73 120 72.2C130 71.3 140 67.7 150 66.5C160 65.3 170 66.7 180 69.3C190 72 200 76 210 78.5C220 81 230 82 240 81.2C250 80.3 260 77.7 270 75.7C280 73.7 290 72.3 295 71.7L300 71L300 101L295 101C290 101 280 101 270 101C260 101 250 101 240 101C230 101 220 101 210 101C200 101 190 101 180 101C170 101 160 101 150 101C140 101 130 101 120 101C110 101 100 101 90 101C80 101 70 101 60 101C50 101 40 101 30 101C20 101 10 101 5 101L0 101Z" fill="#f7caca"></path></svg>