<svg id="visual" viewBox="0 0 300 100" width="300" height="100" xmlns="http://www.w3.org/2000/svg" xmlns:xlink="http://www.w3.org/1999/xlink" version="1.1"><path d="M0 80L5 75.3C10 70.7 20 61.3 30 58.2C40 55 50 58 60 62.7C70 67.3 80 73.7 90 72.7C100 71.7 110 63.3 120 62.2C130 61 140 67 150 65C160 63 170 53 180 52.3C190 51.7 200 60.3 210 60.8C220 61.3 230 53.7 240 52.7C250 51.7 260 57.3 270 61.2C280 65 290 67 295 68L300 69L300 0L295 0C290 0 280 0 270 0C260 0 250 0 240 0C230 0 220 0 210 0C200 0 190 0 180 0C170 0 160 0 150 0C140 0 130 0 120 0C110 0 100 0 90 0C80 0 70 0 60 0C50 0 40 0 30 0C20 0 10 0 5 0L0 0Z" fill="#fa8072"></path><path d="M0 39L5 38.2C10 37.3 20 35.7 30 38.8C40 42 50 50 60 50.2C70 50.3 80 42.7 90 41.5C100 40.3 110 45.7 120 47.8C130 50 140 49 150 49.2C160 49.3 170 50.7 180 48.3C190 46 200 40 210 40.7C220 41.3 230 48.7 240 47.7C250 46.7 260 37.3 270 37.7C280 38 290 48 295 53L300 58L300 0L295 0C290 0 280 0 270 0C260 0 250 0 240 0C230 0 220 0 210 0C200 0 190 0 180 0C170 0 160 0 150 0C140 0 130 0 120 0C110 0 100 0 90 0C80 0 70 0 60 0C50 0 40 0 30 0C20 0 10 0 5 0L0 0Z" fill="#fca5a0"></path><path d="M0 17L5 20.2C10 23.3 20 29.7 30 31.2C40 32.7 50 29.3 60 28.2C70 27 80 28 90 27.5C100 27 110 25 120 25.8C130 26.7 140 30.3 150 31.5C160 32.7 170 31.3 180 28.7C190 26 200 22 210 19.5C220 17 230 16 240 16.8C250 17.7 260 20.3 270 22.3C280 24.3 290 25.7 295 26.3L300 27L300 0L295 0C290 0 280 0 270 0C260 0 250 0 240 0C230 0 220 0 210 0C200 0 190 0 180 0C170 0 160 0 150 0C140 0 130 0 120 0C110 0 100 0 90 0C80 0 70 0 60 0C50 0 40 0 30 0C20 0 10 0 5 0L0 0Z" fill="#f7caca"></path></svg>